<svg xmlns="http://www.w3.org/2000/svg" viewBox="0 0 320 320" role="img" aria-labelledby="title">
  <title id="title">Plutao cat</title>
  <defs>
    <linearGradient id="bg" x1="0" y1="0" x2="1" y2="1">
      <stop offset="0%" stop-color="#2b2d42"/>
      <stop offset="100%" stop-color="#0b1020"/>
    </linearGradient>
  </defs>
  <rect width="320" height="320" rx="36" fill="url(#bg)"/>
  <circle cx="160" cy="154" r="102" fill="none" stroke="#ffffff" stroke-opacity="0.14" stroke-width="14"/>
  <path d="M94 116 72 68 118 104Z" fill="#eef2ff" opacity="0.94"/>
  <path d="M226 116 248 68 202 104Z" fill="#eef2ff" opacity="0.94"/>
  <circle cx="160" cy="156" r="82" fill="#e5e7eb"/>
  <circle cx="134" cy="148" r="8" fill="#111827"/>
  <circle cx="186" cy="148" r="8" fill="#111827"/>
  <path d="M154 164c4 4 12 4 16 0" fill="none" stroke="#111827" stroke-width="5" stroke-linecap="round"/>
  <path d="M160 156l-10 12h20z" fill="#6b7280"/>
  <path d="M86 182h48M86 194h38M86 206h44M186 182h48M196 194h38M190 206h44" fill="none" stroke="#111827" stroke-width="4" stroke-linecap="round"/>
  <path d="M102 140c18-14 35-19 54-18M218 140c-18-14-35-19-54-18" fill="none" stroke="#ffffff" stroke-opacity="0.42" stroke-width="6" stroke-linecap="round"/>
  <rect x="122" y="242" width="76" height="22" rx="11" fill="#111827" opacity="0.9"/>
  <text x="160" y="258" text-anchor="middle" font-family="Arial, sans-serif" font-size="18" font-weight="700" fill="#ffffff">PLUTO</text>
</svg>
